<?xml version="1.0" encoding="utf-8"?>
<!-- Generator: Adobe Illustrator 19.1.0, SVG Export Plug-In . SVG Version: 6.00 Build 0)  -->
<!DOCTYPE svg PUBLIC "-//W3C//DTD SVG 1.1//EN" "http://www.w3.org/Graphics/SVG/1.1/DTD/svg11.dtd">
<svg version="1.1" id="Layer_1" xmlns="http://www.w3.org/2000/svg" xmlns:xlink="http://www.w3.org/1999/xlink" x="0px" y="0px"
	 viewBox="-481 352 61 66" style="enable-background:new -481 352 61 66;" xml:space="preserve">
<style type="text/css">
	.st0{fill:#FFFFFF;stroke:#FFFFFF;stroke-width:2;}
	.st1{fill:#FFFFFF;stroke:#FFFFFF;stroke-width:0.75;}
</style>
<path class="st0" d="M-480,354v55.4l28.9,6.7l30.1-6.7V354H-480z M-421.8,408.8l-29.3,6.5l-28.2-6.5v-54.1h57.5V408.8z"/>
<g>
	<path class="st1" d="M-469.3,368.6h4.9c3.1,0,3.7,1,3.7,4.1v20.2c0,3.8-0.9,5.1-3.7,5.1h-4.9C-469.3,398.1-469.3,368.6-469.3,368.6
		z M-464.4,396.1c1.7,0,1.7-1.4,1.7-3.1v-20.4c0-1.3-0.2-1.9-1.7-1.9h-2.9v25.4H-464.4z"/>
	<path class="st1" d="M-456.5,394.7v-26.1h2v26.1c0,1.2,0.4,1.7,1.5,1.7h2.5v-27.8h2v27.8h2.5c1.3,0,1.5-0.6,1.5-1.7v-26.2h2v26.2
		c0,2.4-0.7,3.7-3.6,3.7h-7.1C-455.3,398.5-456.5,397.6-456.5,394.7z"/>
	<path class="st1" d="M-438.2,368.6h4.9c2.6,0,3.4,1,3.4,3.8v13.1c0,2.8-0.9,4-3.8,4h-2.5v8.9h-2V368.6L-438.2,368.6z M-433.7,387.5
		c1.4,0,1.8-0.7,1.8-2v-13.3c0-1-0.2-1.5-1.4-1.5h-2.9v16.9L-433.7,387.5L-433.7,387.5z"/>
</g>
</svg>
