<?xml version="1.0" encoding="utf-8"?>
<!-- Generator: Adobe Illustrator 17.1.0, SVG Export Plug-In . SVG Version: 6.00 Build 0)  -->
<!DOCTYPE svg PUBLIC "-//W3C//DTD SVG 1.1//EN" "http://www.w3.org/Graphics/SVG/1.1/DTD/svg11.dtd">
<svg version="1.1" id="Layer_1" xmlns="http://www.w3.org/2000/svg" xmlns:xlink="http://www.w3.org/1999/xlink" x="0px" y="0px"
	 viewBox="0 0 387 72" enable-background="new 0 0 387 72" xml:space="preserve">
<g>
	<path fill="#404040" d="M6.7,51l-0.5-10h2.7c1.4,6.7,5.2,11.3,11.1,11.3c4.4,0,7.2-2.3,7.2-6.1c0-4-2.5-5.7-9.2-8
		c-7.2-2.3-11.5-5.7-11.5-12.7c0-7.5,5.7-12.5,14-12.5c5.1,0,9.5,1.3,12.4,3.4v8.8h-2.4c-1.2-6-4.4-9.6-9.9-9.6
		c-3.8,0-6.3,2.3-6.3,5.7c0,3.9,2.3,5.5,8.4,7.6c7.8,2.6,12.6,5.6,12.6,13.3c0,8.5-6.9,12.6-15.3,12.6C14.3,54.8,9.4,53.1,6.7,51z"
		/>
	<path fill="#404040" d="M51,23.2h7.2v2.9H51v19.2c0,3.2,1.2,4.5,3.7,4.5c1.5,0,2.8-0.5,4.2-1.6l0.8,1.2c-2,3.2-5.1,5.3-9.5,5.3
		c-5,0-8.6-2.6-8.6-9.2V26.1h-3.5v-1.6c4.3-1.8,8.1-5.1,10.8-9h2V23.2z"/>
	<path fill="#404040" d="M60.5,39.4c0-9.8,6.6-16.7,15.6-16.7c9.2,0,15.5,6.1,15.5,15.4c0,9.8-6.6,16.7-15.7,16.7
		C66.7,54.8,60.5,48.7,60.5,39.4z M81.7,40.3c0-9-1.7-15.4-5.9-15.4c-3.9,0-5.5,4.7-5.5,12.2c0,9,1.7,15.4,5.9,15.4
		C80.1,52.5,81.7,47.8,81.7,40.3z"/>
	<path fill="#404040" d="M107.9,49c0,2.4,1.3,2.7,4.8,3.1v2.1H95.1v-2.1c2.5-0.2,3.4-0.5,3.4-2.4V29.3l-3.4-2v-1.3l11.2-3.2h1.7
		l-0.2,8.8c2.6-6.6,4.4-8.8,7.9-8.8c1.3,0,2.2,0.4,2.7,1v7.1h-1.2c-3.7,0-6.7,0.2-9.5,2.7V49z"/>
	<path fill="#404040" d="M146.8,29c0.3-0.8,0.5-1.2,0.5-1.7c0-1.3-0.9-1.6-3.9-2v-2.1h10.2v2.1c-2,0.6-2.4,1-3,2.3l-13,31.9
		c-2,4.9-4.1,7.5-7.9,7.5c-2.1,0-3.9-0.9-4.7-2.5v-3.5c1.3,0.3,2.5,0.5,4.2,0.5c3.2,0,5-0.9,6.1-3.7l0.9-2.3l-12.8-27.9
		c-0.6-1.3-0.9-1.7-3-2.3v-2.1h17.1v2.1c-3,0.3-3.9,0.7-3.9,2c0,0.5,0.1,0.9,0.3,1.6l6.6,16L146.8,29z"/>
	<path fill="#404040" d="M169.7,32.8c-1.7-2-3.8-5.2-3.8-9.2c0-6.6,4.9-10.7,12.3-10.7c7.1,0,11.7,3.6,11.7,8.9
		c0,4.9-3.6,7.9-9.7,9.5l9.9,11.6c0.8-1.7,1.3-3.7,1.3-5.7c0-2.4-1.4-3-4.1-3.1v-2.2h13v2.2c-3.9,0.1-5.3,0.9-6,4.2
		c-0.5,2.3-1.3,4.5-2.6,6.5l2.8,3.2c2.2,2.7,3.6,3.9,6,4.1v2.2h-11.2c-1.4-1-2.5-1.9-3.6-3c-3.2,2.2-7.1,3.5-11.5,3.5
		c-7.5,0-14-3.8-14-11.1C160.3,37.9,163.9,34.6,169.7,32.8z M184,49.3c-0.5-0.5-0.9-1-1.3-1.5l-11.6-13.5c-1.9,1.7-2.6,4.1-2.6,6.8
		c0,5.7,3.9,9.6,9.7,9.6C180.3,50.8,182.2,50.3,184,49.3z M178.4,29.2l0.5,0.6c3.1-1.9,4.2-4.8,4.2-8.6c0-3.1-1.4-6-4.8-6
		c-2.8,0-4.5,2.1-4.5,5.2C173.7,24.3,176.5,26.9,178.4,29.2z"/>
	<path fill="#404040" d="M222.9,31.9H239V19.7c0-3.1-0.5-3.5-4.5-4v-2.2h18.7v2.2c-3.9,0.5-4.4,0.9-4.4,4V48c0,3.1,0.5,3.5,4.4,4
		v2.2h-18.7V52c4-0.5,4.5-0.9,4.5-4V35.1h-16.2V48c0,3.1,0.5,3.5,4.5,4v2.2h-18.7V52c3.9-0.5,4.4-0.9,4.4-4V19.7
		c0-3.1-0.5-3.5-4.4-4v-2.2h18.7v2.2c-4,0.5-4.5,0.9-4.5,4V31.9z"/>
	<path fill="#404040" d="M282.8,35.1v1.3h-18.7c-0.2,7.6,3.8,12.1,9.3,12.1c3.9,0,6.6-1.5,8.7-4.5l1,0.6
		c-1.5,6.1-5.9,10.1-12.9,10.1c-8.5,0-14.5-6-14.5-15.3c0-10.2,6.7-16.8,14.9-16.8C278.7,22.7,282.8,27.9,282.8,35.1z M264.2,34
		h10.4c0-5.5-1.3-9.1-4.7-9.1C266.4,24.9,264.6,28.7,264.2,34z"/>
	<path fill="#404040" d="M312.2,47.8c0,1.7,0.3,2.9,1.7,2.9c0.9,0,1.6-0.2,2.1-0.5l0.3,1.4c-1.7,2-4.1,3.1-7.1,3.1
		c-3.2,0-5.5-1.9-6.2-5c-1.8,2.4-4.7,4.9-8.9,4.9c-4.8,0-8.1-2.8-8.1-7.7c0-5,3.5-7.1,7.8-8.6l9-3.2v-5.4c0-3-0.9-5.1-3.6-5.1
		c-2.5,0-3.5,2-3.5,4.8c0,1.2,0.2,2.4,0.5,3.8l-5.6,0.8c-1.6-0.5-2.7-1.9-2.7-3.8c0-5,5.2-7.5,11.9-7.5c7.7,0,12.2,2.6,12.2,9.8
		V47.8z M303,48.2V37.4l-4.1,1.6c-2.3,0.9-3.7,2.1-3.7,5.4c0,3,1.3,5.2,4.3,5.2C300.8,49.6,301.7,49.1,303,48.2z"/>
	<path fill="#404040" d="M331.4,49c0,2.4,1.3,2.7,4.8,3.1v2.1h-17.5v-2.1c2.5-0.2,3.4-0.5,3.4-2.4V29.3l-3.4-2v-1.3l11.2-3.2h1.7
		l-0.2,8.8c2.6-6.6,4.4-8.8,7.9-8.8c1.3,0,2.2,0.4,2.7,1v7.1h-1.2c-3.7,0-6.7,0.2-9.5,2.7V49z"/>
	<path fill="#404040" d="M357,23.2h7.2v2.9H357v19.2c0,3.2,1.2,4.5,3.7,4.5c1.5,0,2.8-0.5,4.2-1.6l0.8,1.2c-2,3.2-5.1,5.3-9.5,5.3
		c-5,0-8.6-2.6-8.6-9.2V26.1h-3.5v-1.6c4.3-1.8,8.1-5.1,10.8-9h2V23.2z"/>
</g>
<g>
	<path fill="#404040" d="M374.2,12.9c3.2,0,5.5,2.4,5.5,5.5c0,3-2.3,5.4-5.5,5.4c-3.2,0-5.4-2.4-5.4-5.4
		C368.8,15.4,371.1,12.9,374.2,12.9z M374.2,23.1c2.7,0,4.7-2.2,4.7-4.7c0-2.6-2-4.8-4.7-4.8c-2.7,0-4.7,2.2-4.7,4.8
		C369.5,20.9,371.5,23.1,374.2,23.1z M374.3,15.4c1.6,0,2.3,0.7,2.3,1.6c0,0.9-0.7,1.4-1.3,1.6l1.1,1.4c0.3,0.4,0.5,0.6,0.9,0.6v0.4
		h-1.6c-0.3-0.2-0.5-0.5-0.8-0.9l-1-1.5h-0.3v1.3c0,0.5,0.1,0.6,0.6,0.6v0.4h-2.7v-0.4c0.5,0,0.6-0.1,0.6-0.6v-3.7
		c0-0.5-0.1-0.5-0.6-0.6v-0.4H374.3z M373.6,15.9v2.4h0.3c0.7,0,1.1-0.5,1.1-1.2c0-0.7-0.4-1.2-1.1-1.2H373.6z"/>
</g>
</svg>
