<svg id="xoxo-logo-filled" data-name="Layer 1" viewBox="0 0 200.32 200.16">
	<path d="M131.19,54.09a15,15,0,1,0,15,15A15,15,0,0,0,131.19,54.09Z"></path>
	<path d="M197.59,0.08H2.73A2.57,2.57,0,0,0,.16,2.65V197.51a2.57,2.57,0,0,0,2.57,2.57H197.59a2.57,2.57,0,0,0,2.57-2.57V2.65A2.57,2.57,0,0,0,197.59.08Zm-109,146.76a2.62,2.62,0,1,1-3.71,3.71L69.13,134.82,53.41,150.54a2.62,2.62,0,1,1-3.71-3.71l15.73-15.73L49.7,115.38a2.62,2.62,0,0,1,3.71-3.71L69.13,127.4l15.73-15.73a2.62,2.62,0,0,1,3.71,3.71L72.84,131.11Zm0-62.05a2.62,2.62,0,1,1-3.71,3.71L69.13,72.76,53.41,88.49a2.62,2.62,0,1,1-3.71-3.71L65.42,69.05,49.7,53.33a2.62,2.62,0,1,1,3.71-3.71L69.13,65.34,84.86,49.62a2.62,2.62,0,1,1,3.71,3.71L72.84,69.05Zm42.62,66.53a20.21,20.21,0,1,1,20.21-20.21A20.23,20.23,0,0,1,131.19,151.31Zm0-62.05a20.21,20.21,0,1,1,20.21-20.21A20.23,20.23,0,0,1,131.19,89.26Z"></path>
	<path d="M131.19,116.15a15,15,0,1,0,15,15A15,15,0,0,0,131.19,116.15Z"></path>
</svg>